<?xml version="1.0" standalone="no"?>
<!DOCTYPE svg PUBLIC "-//W3C//DTD SVG 20010904//EN"
 "http://www.w3.org/TR/2001/REC-SVG-20010904/DTD/svg10.dtd">
<svg version="1.0" xmlns="http://www.w3.org/2000/svg"
 width="48.000000pt" height="48.000000pt" viewBox="0 0 48.000000 48.000000"
 preserveAspectRatio="xMidYMid meet">

<g transform="translate(0.000000,48.000000) scale(0.100000,-0.100000)"
fill="#000000" stroke="none">
<path d="M0 240 l0 -240 240 0 240 0 0 240 0 240 -240 0 -240 0 0 -240z m343
52 l57 -58 -55 -54 -55 -54 0 55 c0 53 -2 57 -50 104 -27 27 -50 53 -50 57 0
4 22 8 48 8 45 0 51 -3 105 -58z m-110 -109 l51 -53 -54 0 c-52 0 -57 2 -107
52 l-53 52 52 54 53 53 3 -53 c3 -49 7 -57 55 -105z"/>
</g>
</svg>
