<svg width="195" height="24" viewBox="0 0 195 24" fill="none" xmlns="http://www.w3.org/2000/svg">
    <path d="M30.065 6.01888L24.0461 0H12.0352L24.0461 12.011V23.9976L30.065 18.0274L36.0839 12.0085L30.065 6.01401V6.01888Z" fill="#AE9FE8"/>
    <path d="M6.01888 17.9811L12.0378 24H24.0487L12.0378 11.989V0L6.01888 5.97016L0 11.9866L6.01888 17.9811Z" fill="#AE9FE8"/>
    <path d="M113.74 6.18911C112.834 5.41209 111.743 4.81532 110.603 4.42559C109.28 3.98471 107.879 3.75087 106.479 3.77767C105.078 3.75087 103.678 3.96035 102.355 4.42559C101.215 4.81532 100.151 5.41209 99.2178 6.18911C98.3872 6.94178 97.7124 7.82354 97.2472 8.8344C96.7795 9.8209 96.5457 10.8829 96.5457 11.9717C96.5213 13.1117 96.7527 14.2273 97.2472 15.2649C97.7149 16.2514 98.3872 17.1332 99.2178 17.8591C100.124 18.6361 101.215 19.2597 102.355 19.6494C105.027 20.48 107.904 20.48 110.603 19.6494C111.743 19.2597 112.807 18.6629 113.74 17.8591C114.595 17.16 115.297 16.2782 115.764 15.2649C117.192 12.1276 116.361 8.41788 113.74 6.18911ZM111.76 13.8643C111.494 14.4392 111.097 14.9385 110.61 15.338C110.079 15.7935 109.477 16.1321 108.829 16.3537C107.297 16.8238 105.663 16.8238 104.148 16.3537C103.5 16.1321 102.881 15.7789 102.367 15.338C101.895 14.9264 101.512 14.4246 101.249 13.8643C100.969 13.2749 100.838 12.6416 100.852 11.9936C100.852 11.3749 100.984 10.7709 101.249 10.2106C101.515 9.63578 101.897 9.13644 102.367 8.70774C102.898 8.26686 103.5 7.92828 104.148 7.70662C104.898 7.44112 105.695 7.3242 106.489 7.33881C107.283 7.3242 108.079 7.45573 108.829 7.70662C109.477 7.92828 110.096 8.26686 110.61 8.70774C112.098 9.97436 112.568 12.0789 111.76 13.8619V13.8643Z" fill="#AE9FE8"/>
    <path d="M154.813 3.98438H158.749V11.8569C158.749 12.5219 158.8 13.1869 158.953 13.825C159.107 14.3877 159.387 14.9236 159.796 15.3596C160.232 15.82 160.768 16.1512 161.355 16.3558C162.122 16.6116 162.941 16.7383 163.732 16.6871C164.193 16.7383 164.68 16.7383 165.138 16.6871C165.598 16.5848 166.032 16.4313 166.468 16.2535C166.904 16.1001 167.311 15.8955 167.669 15.6397C168.027 15.4351 168.334 15.1793 168.641 14.8724V3.98438H172.577V20.012H168.641V18.682C167.72 19.2179 166.724 19.6539 165.701 19.9097C164.78 20.1386 163.859 20.2677 162.914 20.2921C161.662 20.3165 160.41 20.1386 159.207 19.7562C158.237 19.4761 157.365 18.9378 156.652 18.2485C155.987 17.5591 155.502 16.7139 155.246 15.7932C154.939 14.719 154.786 13.6204 154.81 12.5219V3.98438H154.813Z" fill="#AE9FE8"/>
    <path d="M89.7354 7.97326H95.5521V3.98828C94.3878 3.98828 93.3088 4.14904 92.3223 4.53147C91.4965 4.84325 90.5685 5.20375 89.7379 6.00269V3.99072H85.7334V20.0354H89.7135V13.8387L89.7379 7.97813L89.7354 7.97326Z" fill="#AE9FE8"/>
    <path d="M146.602 7.97326H152.418V3.98828C151.254 3.98828 150.175 4.14904 149.188 4.53147C148.363 4.84325 147.435 5.20375 146.604 6.00269V3.99072H142.6V20.0354H146.58V13.8387L146.604 7.97813L146.602 7.97326Z" fill="#AE9FE8"/>
    <path d="M82.934 13.5382C83.1362 12.4883 83.1191 11.419 82.8902 10.396C82.537 8.78834 81.6698 7.30006 80.3569 6.17715C79.446 5.39526 78.3498 4.79605 77.2099 4.40632C75.8775 3.963 74.4793 3.7316 73.0739 3.75352C71.6636 3.7316 70.2654 3.93865 68.933 4.40632C67.7931 4.79361 66.7237 5.39526 65.7859 6.17715C64.9553 6.92982 64.2806 7.81158 63.813 8.82974C63.5718 9.33639 63.3916 9.85765 63.2795 10.3984C63.1675 10.9148 63.1114 11.4434 63.1114 11.9768C63.0993 12.5054 63.1407 13.0266 63.2454 13.5382C63.3575 14.1349 63.5499 14.7171 63.813 15.2798C64.2782 16.2687 64.9529 17.1505 65.7859 17.8812C66.6969 18.6631 67.7931 19.2867 68.933 19.674C70.3092 20.1002 71.7415 20.3097 73.1811 20.2975C77.3487 20.2975 80.8782 18.9091 80.8782 18.9091L80.4057 17.8349L79.4849 15.7328C76.5961 16.9532 73.1811 16.8898 73.1811 16.8898C72.2969 16.8898 71.4736 16.7778 70.6478 16.5245C69.9731 16.2931 69.3325 15.9277 68.799 15.4673C68.3046 15.041 67.9124 14.5174 67.6347 13.9401C67.5738 13.811 67.5178 13.677 67.4715 13.5357H82.934V13.5382ZM67.6347 10.1451C67.91 9.54831 68.3046 9.03192 68.799 8.5886C69.3495 8.12823 69.9731 7.77504 70.6478 7.54364C71.4297 7.26839 72.2555 7.15147 73.0812 7.16122C73.9069 7.14904 74.7327 7.28544 75.5146 7.54364C76.1893 7.77504 76.8299 8.12823 77.3633 8.5886C77.9479 9.08794 78.3864 9.71151 78.6494 10.3984H67.53C67.5592 10.3132 67.5982 10.2303 67.6372 10.1451H67.6347Z" fill="#AE9FE8"/>
    <path d="M194.723 13.5382C194.925 12.4883 194.908 11.419 194.679 10.396C194.326 8.78834 193.459 7.30006 192.146 6.17715C191.235 5.39526 190.139 4.79605 188.999 4.40632C187.667 3.963 186.268 3.7316 184.863 3.75352C183.453 3.7316 182.054 3.93865 180.722 4.40632C179.582 4.79361 178.513 5.39526 177.575 6.17715C176.744 6.92982 176.07 7.81158 175.602 8.82974C175.361 9.33639 175.181 9.85765 175.069 10.3984C174.957 10.9148 174.9 11.4434 174.9 11.9768C174.888 12.5054 174.93 13.0266 175.034 13.5382C175.147 14.1349 175.339 14.7171 175.602 15.2798C176.067 16.2687 176.742 17.1505 177.575 17.8812C178.486 18.6631 179.582 19.2867 180.722 19.674C182.098 20.1002 183.531 20.3097 184.97 20.2975C189.138 20.2975 192.667 18.9091 192.667 18.9091L192.195 17.8349L191.274 15.7328C188.385 16.9532 184.97 16.8898 184.97 16.8898C184.086 16.8898 183.263 16.7778 182.437 16.5245C181.762 16.2931 181.122 15.9277 180.588 15.4673C180.094 15.041 179.701 14.5174 179.424 13.9401C179.363 13.811 179.307 13.677 179.261 13.5357H194.723V13.5382ZM179.424 10.1451C179.699 9.54831 180.094 9.03192 180.588 8.5886C181.139 8.12823 181.762 7.77504 182.437 7.54364C183.219 7.26839 184.045 7.15147 184.87 7.16122C185.696 7.14904 186.522 7.28544 187.304 7.54364C187.978 7.77504 188.619 8.12823 189.152 8.5886C189.737 9.08794 190.175 9.71151 190.439 10.3984H179.319C179.348 10.3132 179.387 10.2303 179.426 10.1451H179.424Z" fill="#AE9FE8"/>
    <path d="M138.561 16.5122C137.991 16.7971 137.372 16.9506 136.727 16.9774C136.442 17.0042 136.159 16.9506 135.901 16.8483C135.643 16.746 135.409 16.5901 135.202 16.3563C135.022 16.1492 134.866 15.891 134.788 15.6328C134.71 15.3746 134.737 15.2699 134.737 14.8047L134.744 7.96492H139.034V4.77644H134.795L134.788 0.5625L130.764 0.976587L130.757 4.77644H125.159L128.355 7.97222H130.754V14.6488C130.754 15.5281 130.961 16.1736 131.193 16.897C131.426 17.6205 131.838 18.2659 132.357 18.8091C132.9 19.3523 133.546 19.7664 134.269 20.0246C134.993 20.2828 135.767 20.3607 136.517 20.2584C137.604 20.2316 138.663 20.0246 139.645 19.6129L138.559 16.5122H138.561Z" fill="#AE9FE8"/>
    <path d="M61.026 3.98633H43.2568V7.16506H61.026V3.98633Z" fill="#AE9FE8"/>
    <path d="M43.2568 20.0064L61.026 20.0332V16.8398H43.2568V20.0064Z" fill="#AE9FE8"/>
    <path d="M61.026 7.16797L43.2568 13.3306V16.8406L61.026 10.6268V7.16797Z" fill="#AE9FE8"/>
    <path d="M125.982 12.0222L124.401 10.4414H121.237H119.656V13.6031H121.237H124.401H127.563L125.982 12.0222Z" fill="#AE9FE8"/>
</svg>
